<?xml version="1.0" encoding="iso-8859-1"?>
<!-- Generator: Adobe Illustrator 19.0.0, SVG Export Plug-In . SVG Version: 6.00 Build 0)  -->
<svg version="1.1" id="Capa_1" xmlns="http://www.w3.org/2000/svg" xmlns:xlink="http://www.w3.org/1999/xlink" x="0px" y="0px"
	 viewBox="0 0 448 448" style="enable-background:new 0 0 448 448;" xml:space="preserve">
<g>
	<g>
		<g>
			<path d="M448,24.4H0v256h116.8c-3.2,10.4-4.8,20.8-4.8,31.2c0,61.6,50.4,112,112,112s112-50.4,112-112c0-11.2-1.6-21.6-4.8-31.2
				H448V24.4z M224,407.6c-52.8,0-96-43.2-96-96c0-50.4,38.4-91.2,88-95.2v99.2l69.6,69.6C269.6,398.8,248,407.6,224,407.6z
				 M48,184.4v-64c26.4,0,48-21.6,48-48h256c0,26.4,21.6,48,48,48v64c-26.4,0-48,21.6-48,48h-48.8c-10.4-10.4-22.4-18.4-36-24
				c9.6-12.8,15.2-29.6,15.2-48c0-40-26.4-72-58.4-72s-58.4,32-58.4,72c0,18.4,6.4,35.2,16,48c-13.6,5.6-25.6,13.6-36,24H96.8
				C96,206,74.4,184.4,48,184.4z M80,232.4H48v-32C65.6,200.4,80,214.8,80,232.4z M48,104.4v-32h32C80,90,65.6,104.4,48,104.4z
				 M368,72.4h32v32C382.4,104.4,368,90,368,72.4z M400,200.4v32h-32C368,214.8,382.4,200.4,400,200.4z M224,120.4
				c-15.2,0-28,12.8-28,28c0,5.6,1.6,10.4,4,15.2c-7.2,1.6-12.8,4.8-18.4,7.2c-0.8-3.2-0.8-6.4-0.8-10.4c0-31.2,19.2-56,42.4-56
				s42.4,24.8,42.4,56c0.8,3.2,0,6.4,0,9.6c-4.8-3.2-10.4-5.6-17.6-7.2c2.4-4,4-9.6,4-14.4C252,133.2,239.2,120.4,224,120.4z
				 M236,148.4c0,6.4-5.6,12-12,12c-6.4,0-12-5.6-12-12c0-6.4,5.6-12,12-12C230.4,136.4,236,141.2,236,148.4z M224,175.6
				c18.4,0,28.8,4,36.8,9.6c-2.4,6.4-6.4,12-10.4,16.8c-8.8-2.4-17.6-3.2-26.4-3.2c-9.6,0.8-18.4,2.4-27.2,4
				c-4-4.8-8-10.4-10.4-16.8C195.2,180.4,206.4,175.6,224,175.6z M232,216.4c46.4,4,84,40.8,87.2,87.2H232V216.4z M297.6,374
				L244,320.4h76C317.6,340.4,309.6,358.8,297.6,374z M432,264.4H325.6c-2.4-5.6-5.6-11.2-8.8-16h100v-192h-384v192h100
				c-3.2,4.8-6.4,10.4-8.8,16H16v-224h416V264.4z"/>
			<path d="M112,176.4c13.6,0,24-10.4,24-24c0-13.6-10.4-24-24-24c-13.6,0-24,10.4-24,24C88,166,99.2,176.4,112,176.4z M112,144.4
				c4.8,0,8,3.2,8,8c0,4.8-3.2,8-8,8s-8-3.2-8-8C104,147.6,108,144.4,112,144.4z"/>
			<path d="M336,176.4c13.6,0,24-10.4,24-24c0-13.6-10.4-24-24-24c-13.6,0-24,10.4-24,24C312,166,323.2,176.4,336,176.4z M336,144.4
				c4.8,0,8,3.2,8,8c0,4.8-3.2,8-8,8s-8-3.2-8-8C328,147.6,332,144.4,336,144.4z"/>
		</g>
	</g>
</g>
<g>
</g>
<g>
</g>
<g>
</g>
<g>
</g>
<g>
</g>
<g>
</g>
<g>
</g>
<g>
</g>
<g>
</g>
<g>
</g>
<g>
</g>
<g>
</g>
<g>
</g>
<g>
</g>
<g>
</g>
</svg>
