<svg width="656.168" height="600.266" xmlns="http://www.w3.org/2000/svg" xmlns:xlink="http://www.w3.org/1999/xlink" overflow="hidden"><path d="M326.519 241.301 333.859 241.021 334.979 241.621 338.309 239.011 339.829 236.171 345.589 235.241 344.449 239.091 347.219 240.871 345.799 244.511 347.089 245.351 349.579 243.361 349.899 243.751 349.079 250.581 348.869 260.371 350.379 260.911 352.109 262.691 353.249 269.171 354.109 268.561 355.259 264.951 358.039 264.641 360.869 262.211 361.599 263.261 361.779 271.211 360.779 277.601 361.749 280.511 361.749 280.511 361.269 289.111 361.319 289.771 362.309 290.421 362.189 291.901 359.709 292.361 359.299 294.991 357.779 295.161 357.389 296.721 355.609 296.851 355.139 297.511 354.809 299.781 355.669 301.681 351.209 309.421 351.039 312.681 349.739 315.781 350.989 316.451 351.159 318.621 352.379 317.281 353.359 317.081 354.559 317.531 354.579 318.791 353.519 320.731 351.299 322.971 351.319 326.111 346.419 337.081 343.999 338.741 342.769 341.031 338.399 342.321 337.209 343.831 337.269 348.771 335.949 353.411 339.669 354.931 340.009 356.081 339.249 357.641 340.799 359.931 342.439 358.771 343.099 359.671 341.369 367.981 339.089 369.271 336.579 373.171 333.779 375.761 333.439 378.681 334.709 380.671 332.749 385.291 330.239 389.081 326.849 390.981 326.979 392.211 328.859 395.221 328.859 395.221 305.869 396.171 299.139 395.641 293.749 396.521 292.219 397.781 290.089 401.191 285.809 403.161 274.139 412.441 272.059 415.901 269.369 416.581 265.589 418.861 261.789 420.141 252.299 421.591 251.599 422.241 250.609 426.901 249.119 429.041 246.979 430.721 245.919 434.421 243.859 436.781 243.359 441.911 241.769 445.941 241.679 447.891 242.839 460.501 242.249 465.021 242.979 469.631 242.349 473.521 243.209 479.041 254.269 498.391 253.359 505.441 253.909 508.551 253.609 511.291 251.709 514.831 251.219 517.461 247.929 520.071 247.289 522.701 245.389 523.591 242.929 527.931 243.109 531.421 241.919 534.281 239.659 535.791 237.799 538.271 237.669 540.931 234.509 544.401 231.559 544.811 227.759 547.311 225.569 549.881 225.569 549.881 224.899 549.891 224.219 548.111 225.179 547.291 225.589 543.261 225.159 541.741 226.479 540.041 226.989 538.471 226.739 537.171 224.159 534.041 219.279 530.011 219.259 529.101 220.239 529.081 220.029 528.111 219.509 528.451 219.809 527.591 220.049 527.871 220.679 527.151 219.709 526.351 219.769 525.001 218.479 523.981 216.269 523.431 214.969 523.671 214.509 523.281 214.809 522.251 214.339 521.991 213.859 522.911 213.229 522.541 213.899 521.641 213.429 520.791 211.309 520.011 208.759 520.441 207.549 522.081 210.469 522.461 211.419 522.121 211.709 523.001 212.919 523.011 214.679 524.881 216.829 524.251 218.309 524.561 218.389 526.731 216.939 526.861 218.379 527.671 218.219 528.241 217.279 528.311 211.819 525.861 209.079 525.541 202.269 526.391 196.809 527.781 191.469 527.601 189.259 529.141 184.159 530.401 177.189 528.801 175.509 529.581 173.589 529.071 169.829 529.321 168.919 529.791 168.069 532.011 166.809 532.541 156.289 531.581 150.359 531.841 147.449 532.501 145.649 534.311 145.519 536.841 146.849 536.701 147.559 537.661 143.709 538.861 143.039 537.901 144.589 536.681 144.599 536.101 142.809 534.251 140.509 533.771 139.149 534.371 138.989 535.081 136.119 535.331 134.219 534.131 129.549 532.651 129.409 532.141 124.239 531.641 124.189 529.961 125.289 530.131 123.459 528.621 126.519 528.581 126.229 527.981 127.629 526.661 127.759 525.891 125.399 525.321 123.919 526.081 120.609 525.891 121.379 526.321 121.349 526.911 119.519 527.671 120.509 528.981 121.179 528.191 122.329 528.071 123.509 530.531 122.799 531.581 116.469 530.931 108.929 529.071 104.219 529.791 101.229 531.591 100.529 533.271 100.519 535.151 101.609 535.851 101.189 536.721 86.8793 534.491 85.5193 534.661 85.1093 535.551 82.2193 536.521 74.0193 534.761 63.8993 534.071 61.7193 534.511 61.0893 535.431 61.6693 536.031 58.4493 536.741 56.7793 538.041 56.0693 540.421 56.5293 541.051 58.2393 541.001 57.8493 541.461 53.3693 541.041 55.6393 540.361 55.2193 538.061 53.0593 536.491 49.8493 536.091 47.2493 536.701 45.6993 537.881 45.3993 538.971 46.2193 539.431 46.1493 540.401 47.0093 541.211 39.8993 540.831 38.1193 541.601 38.4093 542.201 37.7293 543.901 34.8293 544.861 33.0093 544.531 33.1593 542.401 34.4393 541.601 34.0093 540.141 30.4993 538.191 27.0093 537.651 28.3093 537.201 30.0593 532.841 31.0293 517.631 32.0393 516.271 31.3893 514.921 31.3593 511.451 34.4393 511.341 34.8893 510.641 37.4993 493.091 38.3893 492.291 41.7693 491.351 45.7493 489.341 48.0693 489.281 48.5093 486.141 54.3193 487.501 54.6593 486.281 53.6293 485.171 53.3093 483.741 54.3193 483.691 55.3293 482.431 54.8293 481.481 55.2193 480.381 58.9893 479.741 60.1893 478.501 66.9093 477.771 68.9493 476.421 71.2893 476.271 71.8893 475.471 73.5093 474.881 81.5193 474.831 84.0593 475.511 88.6093 475.091 89.7893 471.191 89.4993 466.641 92.9493 465.301 91.9993 462.971 91.9693 456.311 94.3493 453.901 93.6493 452.161 89.1993 449.461 84.3393 449.821 80.1993 451.601 77.3593 450.521 75.1593 450.731 73.6793 449.781 73.6193 449.041 75.5993 446.721 74.6293 445.201 76.4893 439.781 75.1093 425.021 73.9593 417.481 73.1193 415.111 74.2193 407.411 74.0393 404.431 66.3193 405.391 59.5293 398.251 54.8693 396.281 52.6893 396.181 50.0093 395.231 47.8893 395.341 45.0893 394.341 35.8393 388.541 31.0793 382.821 24.2493 372.411 24.2093 370.261 23.2693 369.201 22.9493 367.731 20.8293 366.781 21.3293 364.221 19.5793 363.001 18.4193 360.171 18.9893 357.261 12.0293 350.461 0.689297 335.631 40.3093 348.661 43.4693 350.291 58.5993 355.531 61.8893 356.041 86.4393 353.111 93.5293 353.141 96.4393 352.241 107.659 351.621 119.439 353.861 124.269 356.601 126.009 356.701 127.329 355.161 126.979 353.501 127.909 352.281 129.999 351.531 131.059 350.331 133.269 350.361 137.869 348.951 137.879 347.951 139.469 347.421 145.049 347.011 156.089 348.091 157.799 347.621 161.379 349.051 189.729 340.611 189.709 341.711 193.139 339.821 197.909 338.871 198.059 338.241 208.279 335.441 209.179 334.471 208.589 333.811 211.769 330.281 211.949 329.671 207.179 325.481 207.949 323.271 209.689 321.861 209.439 320.601 211.479 315.241 211.629 311.181 212.659 309.061 211.739 308.261 212.519 307.381 212.039 306.391 209.529 305.141 209.349 304.461 210.379 299.771 212.839 294.721 211.849 293.361 213.029 291.011 214.529 290.331 216.609 287.381 215.619 287.301 215.619 286.661 220.899 285.541 222.419 284.081 223.269 282.101 224.909 280.991 226.609 275.161 226.209 274.251 228.629 274.201 230.259 271.891 232.859 270.451 237.149 269.761 236.899 270.581 238.279 270.871 237.199 273.241 239.039 274.631 240.619 274.131 242.799 274.341 248.439 275.591 255.869 273.681 256.229 273.511 254.899 273.041 258.869 271.511 260.639 271.361 263.989 269.391 266.139 269.061 267.189 267.751 266.469 265.801 265.289 265.131 261.149 265.771 259.749 264.591 259.649 262.621 258.059 259.991 259.649 259.791 260.159 261.121 264.859 261.081 269.949 256.391 274.159 255.431 277.399 253.301 278.959 250.791 279.539 249.851 281.869 246.171 282.199 247.061 285.369 247.651 285.049 248.381 286.429 249.661 291.659 249.641 292.099 249.371 297.399 246.441 299.799 248.691 302.489 249.071 303.079 252.381 305.269 253.991 306.489 256.301 308.169 256.871 310.819 256.541 312.069 254.691 314.849 255.551 315.259 254.491 318.599 252.091 321.679 245.521 322.979 244.881 326.519 241.301Z" id="PK-BA" stroke="#FFC000" stroke-width="9.11111" stroke-linecap="butt" stroke-opacity="1" fill="none" fill-opacity="1"/><path d="M536.119 3.79132 537.169 3.61132 539.589 1.84132 540.349 5.43132 543.099 8.01132 547.079 4.30132 548.659 4.59132 551.779 3.89132 552.529 5.39132 555.279 6.90132 557.659 6.52132 561.639 7.61132 561.959 8.00132 561.139 9.18132 562.239 10.7513 562.459 15.8413 563.679 18.2513 564.219 18.5013 565.409 17.7913 566.639 18.2013 566.479 16.6813 567.229 16.0913 571.329 15.9813 574.319 17.0613 576.619 18.6413 581.639 23.1113 582.179 26.5313 584.089 28.9713 585.759 33.2313 585.749 34.1813 584.119 36.6613 584.319 38.7713 585.159 38.9813 586.929 41.9313 585.019 42.2213 584.839 43.9213 585.519 44.8213 583.459 45.1513 583.299 45.9313 582.329 46.3813 582.699 49.4613 584.839 51.9013 588.329 52.0713 591.049 56.1913 591.549 60.6813 593.359 59.8513 598.269 60.6813 599.999 58.9013 602.139 58.9113 603.169 57.8613 604.349 58.1213 606.719 56.6713 607.619 57.8513 607.129 61.3713 607.829 62.9913 610.539 64.2613 613.879 68.2413 617.739 68.3813 621.659 71.4513 625.649 71.7813 627.099 73.3413 630.679 75.1513 635.539 75.0313 638.979 77.9713 644.189 76.6813 646.879 77.5813 650.369 77.4113 654.309 75.6813 656.069 76.4413 655.329 76.4213 648.619 82.7713 629.519 97.4913 626.099 98.9313 624.159 98.2513 623.359 102.921 622.309 103.091 618.429 101.361 616.149 103.101 613.759 103.511 613.529 107.571 611.149 111.351 606.509 111.411 603.119 109.721 599.709 112.461 597.009 112.661 594.839 114.871 590.889 116.791 589.489 116.641 587.659 115.251 586.189 115.531 584.459 117.421 582.699 117.361 581.629 118.591 578.709 120.011 575.079 122.761 569.909 121.691 564.069 121.471 564.069 121.471 562.969 119.891 561.419 119.261 559.789 116.771 559.419 115.091 559.979 110.281 559.529 108.891 557.159 106.661 556.089 104.441 555.589 104.411 554.169 106.681 553.449 106.891 552.999 106.121 548.629 109.581 546.519 106.541 542.389 105.291 539.999 103.171 538.739 102.831 538.029 104.071 538.129 100.001 538.949 97.8713 534.729 95.5013 532.119 92.7713 528.109 94.7913 526.329 96.3513 524.729 96.0913 523.699 94.6513 520.279 93.6713 516.189 93.3513 512.309 94.2013 512.309 94.2013 510.519 92.9513 508.639 93.3213 507.739 92.0913 505.689 91.4413 504.149 90.2113 501.599 90.2813 499.679 88.8713 496.839 89.6413 495.769 85.8413 495.789 81.9813 496.389 80.2413 498.169 79.0313 499.939 76.2913 498.919 75.4213 484.769 73.0213 479.609 71.1013 473.999 66.5913 473.059 64.1713 473.539 60.4413 472.319 59.4113 471.199 59.2913 467.819 60.6613 461.979 59.6113 455.999 61.4013 452.299 60.0913 451.299 58.4213 449.889 57.5113 451.989 52.4013 450.119 48.4513 451.089 45.8713 450.959 43.1113 451.759 41.2313 453.559 40.0513 456.239 40.1613 457.489 38.3013 462.969 34.8413 463.909 31.1413 467.179 30.2713 467.349 28.9613 470.109 27.0913 471.559 23.8413 470.599 20.8913 471.059 19.7313 472.829 19.4513 474.819 18.1913 478.319 18.7513 482.489 17.0713 484.489 16.8113 487.419 18.0213 490.519 17.9013 491.409 18.9413 494.279 19.1613 495.859 18.3213 497.229 18.6513 498.429 18.2713 501.529 18.9213 502.119 16.9713 501.239 14.9013 499.589 14.3313 498.939 13.1013 495.669 12.2313 494.299 10.1613 494.299 10.1613 493.569 9.48132 494.369 9.13132 496.009 9.06132 497.109 9.64132 501.229 9.24132 508.489 12.2413 512.049 12.4813 513.299 9.20132 517.179 9.65132 523.679 5.04132 527.429 4.90132 528.169 6.53132 529.019 6.77132 529.529 3.19132 531.059 2.44132 531.389 0.561318 533.839 0.271318 534.689 2.54132Z" id="PK-GB" stroke="#FFC000" stroke-width="9.11111" stroke-linecap="butt" stroke-opacity="1" fill="none" fill-opacity="1"/><path d="M469.119 158.231 472.989 156.261 474.689 156.961 478.109 156.571 479.339 155.611 481.109 155.241 483.359 152.451 483.359 152.451 483.339 156.671 484.249 159.711 486.309 160.731 488.449 165.811 489.099 172.051 488.649 172.851 482.219 174.871 476.049 173.641 473.659 170.741 473.829 167.911 473.229 163.511 472.499 161.771 470.759 164.391 469.389 164.511Z" id="PK-IS" stroke="#FFC000" stroke-width="9.11111" stroke-linecap="butt" stroke-opacity="1" fill="none" fill-opacity="1"/><path d="M512.309 94.2013 516.189 93.3513 520.279 93.6713 523.699 94.6513 524.729 96.0913 526.329 96.3513 528.109 94.7913 532.119 92.7713 534.729 95.5013 538.949 97.8713 538.129 100.001 538.029 104.071 538.739 102.831 539.999 103.171 542.389 105.291 546.519 106.541 548.629 109.581 552.999 106.121 553.449 106.891 554.169 106.681 555.589 104.411 556.089 104.441 557.159 106.661 559.529 108.891 559.979 110.281 559.419 115.091 559.789 116.771 561.419 119.261 562.969 119.891 564.069 121.471 564.069 121.471 559.659 120.591 556.229 118.311 556.389 116.971 555.759 116.611 551.599 115.901 546.819 116.881 542.639 114.931 539.739 115.191 535.579 114.671 533.379 114.111 529.859 110.861 521.939 109.291 520.619 109.941 519.299 109.441 518.239 110.941 515.269 112.431 512.899 114.551 509.319 114.841 507.919 113.681 505.879 114.301 504.609 116.671 505.409 120.081 503.369 121.311 503.039 122.791 503.499 123.691 498.789 127.401 498.259 130.051 498.649 130.511 499.969 130.181 501.299 131.041 503.529 130.041 506.499 134.471 506.509 136.941 504.209 140.181 502.999 143.301 502.899 144.461 503.479 145.261 507.649 145.741 512.199 144.221 513.659 144.981 515.719 144.991 517.039 146.141 517.519 150.281 515.919 152.951 512.959 154.671 509.959 155.131 505.729 159.751 508.519 166.491 509.499 166.931 511.119 166.691 514.309 170.781 514.649 171.991 514.019 177.011 511.399 180.521 508.199 181.061 507.969 183.841 511.739 185.401 514.229 188.031 515.359 190.971 517.279 190.721 520.949 192.211 521.079 193.731 519.719 196.641 523.429 197.361 525.279 202.501 525.279 202.501 522.689 203.541 521.579 203.361 520.169 201.421 507.529 195.171 504.369 191.391 502.789 191.341 499.909 192.551 498.669 191.881 497.759 190.521 493.039 188.611 492.979 187.071 494.339 185.731 494.289 183.981 492.879 183.021 492.159 180.641 492.539 179.921 491.919 178.461 492.219 177.631 491.349 177.361 490.809 175.831 491.839 172.751 492.979 171.801 492.269 170.311 492.389 169.351 493.169 168.721 492.989 166.761 490.739 164.201 490.939 162.341 491.899 160.761 491.659 158.521 490.659 156.581 491.389 152.261 489.239 147.901 489.239 147.901 488.439 145.571 486.709 133.981 484.759 132.081 484.179 130.151 485.859 120.921 486.709 120.131 491.239 119.391 492.909 120.511 493.539 120.371 494.819 116.681 494.409 114.401 495.949 112.981 496.829 110.611 500.989 108.191 503.849 108.201 506.759 106.291 509.419 102.151 509.579 100.251 510.719 99.2013 509.819 97.2213 509.959 95.8313Z" id="PK-JK" stroke="#FFC000" stroke-width="9.11111" stroke-linecap="butt" stroke-opacity="1" fill="none" fill-opacity="1"/><path d="M494.299 10.1613 495.669 12.2313 498.939 13.1013 499.589 14.3313 501.239 14.9013 502.119 16.9713 501.529 18.9213 498.429 18.2713 497.229 18.6513 495.859 18.3213 494.279 19.1613 491.409 18.9413 490.519 17.9013 487.419 18.0213 484.489 16.8113 482.489 17.0713 478.319 18.7513 474.819 18.1913 472.829 19.4513 471.059 19.7313 470.599 20.8913 471.559 23.8413 470.109 27.0913 467.349 28.9613 467.179 30.2713 463.909 31.1413 462.969 34.8413 457.489 38.3013 456.239 40.1613 453.559 40.0513 451.759 41.2313 450.959 43.1113 451.089 45.8713 450.119 48.4513 451.989 52.4013 449.889 57.5113 451.299 58.4213 452.299 60.0913 455.999 61.4013 461.979 59.6113 467.819 60.6613 471.199 59.2913 472.319 59.4113 473.539 60.4413 473.059 64.1713 473.999 66.5913 479.609 71.1013 484.769 73.0213 498.919 75.4213 499.939 76.2913 498.169 79.0313 496.389 80.2413 495.789 81.9813 495.769 85.8413 496.839 89.6413 499.679 88.8713 501.599 90.2813 504.149 90.2113 505.689 91.4413 507.739 92.0913 508.639 93.3213 510.519 92.9513 512.309 94.2013 512.309 94.2013 509.959 95.8313 509.819 97.2213 510.719 99.2013 509.579 100.251 509.419 102.151 506.759 106.291 503.849 108.201 500.989 108.191 496.829 110.611 495.949 112.981 494.409 114.401 494.819 116.681 493.539 120.371 492.909 120.511 491.239 119.391 486.709 120.131 485.859 120.921 484.179 130.151 484.759 132.081 486.709 133.981 488.439 145.571 489.239 147.901 489.239 147.901 486.999 149.761 485.429 149.441 484.479 149.911 484.249 150.451 484.959 151.731 483.359 152.451 483.359 152.451 481.109 155.241 479.339 155.611 478.109 156.571 474.689 156.961 472.989 156.261 469.119 158.231 469.119 158.231 467.249 159.021 466.149 157.591 462.769 157.311 462.729 155.101 461.829 153.571 461.769 150.821 461.049 150.331 460.879 148.841 459.869 149.031 457.029 152.171 455.219 152.061 454.089 151.181 455.019 148.741 451.699 148.511 450.379 145.981 448.939 145.971 448.369 144.771 447.489 144.971 446.139 145.631 444.179 147.701 439.519 149.231 439.839 156.861 436.519 156.891 433.869 156.001 433.429 157.061 431.829 157.661 430.749 160.741 429.679 161.851 429.679 165.231 428.519 166.681 428.789 168.341 426.579 170.401 425.609 173.311 424.609 174.301 420.009 175.951 419.079 177.041 419.409 178.421 418.379 180.671 420.389 183.341 420.599 184.951 418.699 187.841 418.919 189.831 415.229 188.021 413.199 182.901 411.789 182.681 410.159 183.381 408.279 182.001 406.389 182.211 406.289 183.661 407.689 186.181 407.139 188.661 408.629 189.891 408.269 191.971 405.839 192.591 404.419 193.811 402.679 192.881 401.379 192.901 397.839 195.161 396.439 197.351 396.279 201.631 395.449 203.301 397.559 211.201 398.939 211.741 400.569 211.401 401.409 212.201 401.479 213.281 400.499 215.511 401.359 216.021 403.499 214.481 405.029 214.491 405.649 216.741 404.809 221.631 402.049 221.951 401.069 222.561 398.169 226.741 398.139 230.091 395.319 231.941 395.559 234.581 394.019 238.711 393.729 241.281 392.919 242.381 392.889 243.871 391.309 245.161 388.469 250.881 386.209 253.181 386.289 255.171 385.559 257.541 384.699 258.371 384.629 259.661 386.229 259.021 386.859 260.461 385.979 261.821 386.209 264.391 384.269 265.371 384.759 266.721 383.829 269.451 381.409 271.501 380.679 268.861 378.359 269.981 373.769 268.551 369.649 270.591 369.039 272.181 367.859 272.751 367.859 273.871 367.859 273.871 364.819 261.721 367.819 259.111 364.019 257.311 362.499 254.831 355.559 232.841 355.809 230.741 357.479 228.511 364.519 223.991 370.399 217.521 371.699 217.151 373.349 217.541 374.059 216.461 367.099 205.381 366.869 201.291 368.049 200.381 370.459 194.001 373.079 190.521 373.609 191.251 377.029 191.271 379.839 190.561 383.669 187.521 385.909 184.211 384.489 183.151 379.609 182.841 379.079 181.171 375.909 180.111 373.469 177.581 371.169 173.671 374.839 173.261 377.219 171.051 380.449 170.211 381.449 166.371 388.179 167.491 391.459 167.361 392.369 166.631 393.959 166.521 394.519 164.381 395.779 163.261 395.359 160.221 396.249 159.191 398.749 160.351 404.129 164.371 407.669 163.611 412.619 164.661 415.429 164.561 415.389 165.301 413.879 166.901 414.109 167.951 415.239 168.751 418.719 168.181 423.729 164.121 422.839 162.091 424.559 159.911 424.719 158.581 420.369 155.201 419.289 157.271 416.859 158.951 414.529 159.731 411.449 159.351 410.779 158.161 411.059 155.291 407.629 153.071 407.669 150.121 405.659 146.361 405.729 142.571 408.649 136.791 410.879 135.191 413.759 130.431 415.629 129.651 418.419 125.241 416.539 121.491 417.669 120.331 418.529 117.251 421.099 115.721 421.339 113.441 422.319 111.421 421.999 110.561 420.839 109.841 416.579 109.081 414.239 104.281 411.829 101.601 411.829 101.601 413.079 99.0513 414.129 98.7813 412.769 98.0113 412.099 95.8113 415.259 93.4913 418.039 90.3413 417.949 89.4513 416.039 88.6013 413.299 85.3813 417.339 79.7113 417.159 78.5413 415.369 75.9513 416.359 73.4613 415.259 72.2813 411.699 70.9113 413.689 66.9413 413.079 65.4913 410.529 63.7913 411.449 62.4213 410.589 61.6513 409.959 59.5313 407.059 57.0013 406.559 54.6513 405.759 54.0013 404.409 54.2513 403.849 53.3413 400.949 51.5913 400.169 49.8913 401.689 48.2313 401.789 47.2113 403.599 45.5213 405.149 45.2513 406.479 43.5913 408.719 42.5113 409.359 40.3313 415.299 37.3313 414.989 36.1013 413.609 34.9813 415.599 33.4613 416.549 31.9513 416.599 30.0813 419.399 31.3613 422.159 33.6413 424.539 33.7013 424.709 32.2713 423.039 31.6613 423.559 28.6213 426.539 28.6313 427.559 25.9713 430.559 25.6413 432.349 24.3013 433.799 24.2213 434.039 21.7613 438.289 20.9913 437.669 19.6013 439.389 16.7213 441.759 17.1313 443.089 16.4413 445.149 16.3213 445.959 15.6113 449.209 15.5613 451.149 13.3813 454.489 12.1513 464.199 12.5113 472.169 10.9713 476.019 10.7813 481.169 12.0013 485.979 10.5113 488.529 10.8713Z" id="PK-KP" stroke="#FFC000" stroke-width="9.11111" stroke-linecap="butt" stroke-opacity="1" fill="none" fill-opacity="1"/><path d="M367.859 273.871 367.859 272.751 369.039 272.181 369.649 270.591 373.769 268.551 378.359 269.981 380.679 268.861 381.409 271.501 383.829 269.451 384.759 266.721 384.269 265.371 386.209 264.391 385.979 261.821 386.859 260.461 386.229 259.021 384.629 259.661 384.699 258.371 385.559 257.541 386.289 255.171 386.209 253.181 388.469 250.881 391.309 245.161 392.889 243.871 392.919 242.381 393.729 241.281 394.019 238.711 395.559 234.581 395.319 231.941 398.139 230.091 398.169 226.741 401.069 222.561 402.049 221.951 404.809 221.631 405.649 216.741 405.029 214.491 403.499 214.481 401.359 216.021 400.499 215.511 401.479 213.281 401.409 212.201 400.569 211.401 398.939 211.741 397.559 211.201 395.449 203.301 396.279 201.631 396.439 197.351 397.839 195.161 401.379 192.901 402.679 192.881 404.419 193.811 405.839 192.591 408.269 191.971 408.629 189.891 407.139 188.661 407.689 186.181 406.289 183.661 406.389 182.211 408.279 182.001 410.159 183.381 411.789 182.681 413.199 182.901 415.229 188.021 418.919 189.831 418.699 187.841 420.599 184.951 420.389 183.341 418.379 180.671 419.409 178.421 419.079 177.041 420.009 175.951 424.609 174.301 425.609 173.311 426.579 170.401 428.789 168.341 428.519 166.681 429.679 165.231 429.679 161.851 430.749 160.741 431.829 157.661 433.429 157.061 433.869 156.001 436.519 156.891 439.839 156.861 439.519 149.231 444.179 147.701 446.139 145.631 447.489 144.971 448.369 144.771 448.939 145.971 450.379 145.981 451.699 148.511 455.019 148.741 454.089 151.181 455.219 152.061 457.029 152.171 459.869 149.031 460.879 148.841 461.049 150.331 461.769 150.821 461.829 153.571 462.729 155.101 462.769 157.311 466.149 157.591 467.249 159.021 469.119 158.231 469.119 158.231 469.389 164.511 470.759 164.391 472.499 161.771 473.229 163.511 473.829 167.911 473.659 170.741 476.049 173.641 482.219 174.871 488.649 172.851 489.099 172.051 488.449 165.811 486.309 160.731 484.249 159.711 483.339 156.671 483.359 152.451 483.359 152.451 484.959 151.731 484.249 150.451 484.479 149.911 485.429 149.441 486.999 149.761 489.239 147.901 489.239 147.901 491.389 152.261 490.659 156.581 491.659 158.521 491.899 160.761 490.939 162.341 490.739 164.201 492.989 166.761 493.169 168.721 492.389 169.351 492.269 170.311 492.979 171.801 491.839 172.751 490.809 175.831 491.349 177.361 492.219 177.631 491.919 178.461 492.539 179.921 492.159 180.641 492.879 183.021 494.289 183.981 494.339 185.731 492.979 187.071 493.039 188.611 497.759 190.521 498.669 191.881 499.909 192.551 502.789 191.341 504.369 191.391 507.529 195.171 520.169 201.421 521.579 203.361 522.689 203.541 525.279 202.501 525.279 202.501 527.979 204.841 531.179 204.061 532.229 202.501 532.249 201.081 534.379 200.311 532.569 205.861 533.569 208.621 532.259 210.771 532.649 213.091 533.739 214.101 533.979 216.161 536.309 216.791 539.729 216.011 545.059 218.221 547.259 216.221 549.289 216.751 551.049 219.441 551.809 219.791 553.389 219.291 553.659 220.161 555.049 220.441 558.879 223.521 559.239 225.481 560.289 226.381 560.139 227.931 558.369 229.841 558.249 231.371 557.049 232.141 556.619 233.481 555.349 234.641 554.909 234.761 554.709 233.491 553.649 233.301 553.259 234.801 552.459 235.511 551.679 234.841 550.589 234.841 549.659 235.901 546.289 237.291 543.229 235.621 542.119 236.361 541.159 236.311 540.879 237.511 539.919 237.681 540.129 238.181 539.069 238.721 538.709 240.641 536.339 240.771 535.879 241.441 534.849 240.511 534.619 242.011 532.939 242.311 531.499 243.981 530.639 243.771 529.869 245.701 528.939 246.361 528.459 248.731 528.759 249.791 527.459 250.151 527.429 251.161 530.659 258.171 530.769 259.691 529.649 260.281 529.299 261.151 531.649 261.831 531.429 262.231 532.249 263.041 531.609 264.681 530.419 265.881 528.759 270.321 527.929 270.311 527.189 271.501 527.619 272.611 526.809 275.581 526.939 277.521 528.439 278.281 528.769 279.901 530.059 279.471 530.329 277.751 531.459 277.591 531.829 278.301 532.599 277.681 533.619 277.881 534.279 279.461 533.419 280.981 531.499 281.631 530.629 281.791 529.019 280.711 527.989 283.171 528.229 284.031 526.629 285.221 525.619 285.271 523.689 287.071 523.509 287.961 521.559 288.891 521.459 290.661 520.669 290.271 519.649 290.581 518.469 292.731 518.919 293.491 517.559 294.151 518.319 295.841 516.399 296.321 513.259 300.211 511.999 300.231 511.629 301.411 510.939 301.101 510.999 302.771 510.039 303.691 510.679 304.121 510.419 304.821 509.989 305.231 508.729 304.521 506.789 306.111 505.969 308.031 504.919 307.791 504.629 309.671 503.679 309.851 502.439 312.001 503.879 313.431 505.789 316.771 506.119 319.741 499.189 325.461 492.379 327.421 483.879 331.171 479.229 348.061 472.189 361.661 468.739 366.141 466.479 371.431 457.569 375.491 444.939 383.001 441.739 387.351 437.189 400.791 429.899 407.391 427.479 410.881 426.089 418.271 416.839 422.121 407.229 422.261 401.939 423.301 386.899 429.541 381.999 428.721 378.939 423.421 378.249 419.441 374.459 415.551 373.209 415.001 371.229 414.951 366.859 416.061 364.419 418.761 360.709 421.431 360.709 421.431 354.279 418.501 351.059 415.491 348.699 411.481 346.179 404.471 346.269 402.971 345.269 402.121 345.059 398.931 343.199 398.391 342.539 396.181 337.199 395.291 337.179 394.081 333.039 393.371 328.819 395.211 328.819 395.211 326.939 392.201 326.819 390.971 330.209 389.071 332.719 385.291 334.679 380.661 333.409 378.681 333.759 375.761 336.559 373.171 339.069 369.271 341.349 367.981 343.079 359.671 342.429 358.771 340.779 359.941 339.239 357.651 339.999 356.091 339.649 354.931 335.939 353.411 337.259 348.771 337.189 343.831 338.389 342.321 342.759 341.021 343.979 338.731 346.399 337.071 351.299 326.101 351.279 322.971 353.499 320.731 354.569 318.791 354.549 317.521 353.339 317.081 352.359 317.281 351.139 318.611 350.969 316.451 349.719 315.781 351.019 312.681 351.189 309.421 355.649 301.681 354.789 299.781 355.129 297.501 355.599 296.851 357.379 296.721 357.769 295.171 359.289 294.991 359.699 292.371 362.189 291.911 362.299 290.421 361.319 289.781 361.259 289.121 361.739 280.511 361.739 280.511 362.479 280.321 362.659 279.661 362.419 276.181 366.979 275.051Z" id="PK-PB" stroke="#FFC000" stroke-width="9.11111" stroke-linecap="butt" stroke-opacity="1" fill="none" fill-opacity="1"/><path d="M279.679 595.001 282.419 594.451 282.839 596.871 281.449 599.971 280.489 600.011 279.969 599.381 277.719 599.791 277.469 598.901 278.619 598.141 278.619 595.861 279.679 595.001ZM391.669 569.021 391.969 565.621 391.309 564.841 391.399 562.391 392.169 561.071 395.519 558.951 394.189 557.621 392.279 553.001 389.259 548.191 387.279 539.291 382.339 534.151 381.479 531.771 378.769 528.861 379.299 523.411 378.849 523.131 379.039 517.291 378.449 515.731 376.559 515.331 373.429 516.611 368.149 517.161 363.509 515.561 362.149 512.781 359.579 510.511 356.409 505.171 355.889 499.631 358.309 495.681 359.369 492.301 359.059 490.331 359.809 481.921 359.189 479.171 358.079 478.151 355.269 477.081 348.039 477.861 345.569 477.381 341.949 474.731 333.969 471.021 332.739 468.171 333.879 459.081 336.389 452.661 339.789 448.941 347.369 442.391 350.239 438.081 353.339 435.741 356.879 426.581 360.719 421.451 360.719 421.451 354.279 418.521 351.059 415.511 348.709 411.501 346.189 404.491 346.279 403.001 345.279 402.151 345.069 398.961 343.209 398.431 342.549 396.221 337.209 395.331 337.189 394.111 333.039 393.411 328.819 395.251 328.819 395.251 305.829 396.201 299.099 395.671 293.709 396.551 292.179 397.811 290.049 401.221 285.769 403.191 274.099 412.471 272.019 415.931 269.329 416.611 265.549 418.891 261.749 420.171 252.259 421.621 251.559 422.271 250.569 426.931 249.079 429.071 246.939 430.751 245.879 434.451 243.819 436.811 243.319 441.941 241.729 445.971 241.639 447.921 242.799 460.531 242.209 465.051 242.939 469.661 242.309 473.551 243.169 479.071 254.229 498.421 253.319 505.471 253.869 508.581 253.569 511.321 251.669 514.861 251.179 517.491 247.889 520.101 247.249 522.731 245.349 523.621 242.889 527.961 243.069 531.451 241.879 534.311 239.619 535.821 237.759 538.301 237.629 540.961 234.469 544.431 231.519 544.841 227.719 547.341 225.529 549.911 225.529 549.911 225.669 550.331 224.479 550.501 223.459 551.571 223.269 552.321 223.739 552.861 226.119 552.441 227.059 551.721 229.819 552.321 230.279 551.421 231.049 551.351 233.289 552.221 235.989 554.571 235.219 552.841 233.579 552.031 233.439 551.421 235.409 550.941 235.499 551.711 235.989 551.601 236.159 553.321 237.649 553.671 239.829 556.141 240.739 555.541 240.089 554.211 241.419 554.891 244.099 553.891 245.529 554.381 245.859 555.691 243.389 557.241 244.499 559.041 243.539 559.691 243.949 560.491 245.849 560.721 246.089 562.471 245.239 564.681 246.789 566.341 246.499 567.321 248.219 569.281 248.649 572.481 250.269 573.381 248.729 573.921 248.969 574.381 248.159 574.971 248.969 577.151 250.309 577.831 249.739 579.261 251.059 581.621 251.239 583.891 252.189 584.531 252.519 587.441 254.019 588.031 254.329 588.801 256.059 589.071 255.519 590.921 257.199 591.601 258.279 591.201 258.899 592.591 260.959 594.101 261.959 594.191 261.959 595.431 262.719 595.791 264.849 595.561 264.389 594.501 265.219 594.471 266.789 595.621 266.939 595.211 268.609 595.211 269.029 591.431 270.119 591.861 272.539 594.751 273.299 594.401 273.899 595.241 273.469 596.491 274.279 597.371 275.379 596.391 275.419 597.041 276.139 597.381 276.949 596.531 276.849 591.801 278.669 594.381 282.839 593.841 283.059 592.651 284.909 591.761 286.409 590.151 288.109 590.701 288.359 588.971 289.909 587.951 290.589 589.091 291.639 587.911 292.469 588.131 294.609 587.251 295.299 589.881 296.579 589.311 304.399 589.361 304.979 575.791 307.389 574.771 308.219 578.991 309.409 579.471 310.159 579.391 310.939 577.101 312.059 576.111 312.959 577.761 314.119 578.251 317.689 576.431 321.819 577.861 326.089 576.111 328.089 576.551 330.779 576.241 333.469 577.031 337.319 576.071 342.109 580.401 351.939 580.821 353.699 580.641 355.059 579.651 357.369 575.521 367.089 572.871 374.429 570.121 376.429 570.881 374.889 573.241 375.479 574.691 374.889 575.391 375.489 575.741 374.969 577.141 378.109 578.291 383.929 578.391 387.349 576.941 386.999 575.521 389.889 573.181 391.389 572.581 391.949 573.161 393.269 573.141 394.859 571.701 396.279 571.221 396.629 570.341 396.039 569.611 391.669 569.021Z" id="PK-SD" stroke="#FFC000" stroke-width="9.11111" stroke-linecap="butt" stroke-opacity="1" fill="none" fill-opacity="1"/><path d="M411.829 101.601 414.239 104.281 416.579 109.081 420.839 109.841 421.999 110.561 422.319 111.421 421.339 113.441 421.099 115.721 418.529 117.251 417.669 120.331 416.539 121.491 418.419 125.241 415.629 129.651 413.759 130.431 410.879 135.191 408.649 136.791 405.729 142.571 405.659 146.361 407.669 150.121 407.629 153.071 411.059 155.291 410.779 158.161 411.449 159.351 414.529 159.731 416.859 158.951 419.289 157.271 420.369 155.201 424.719 158.581 424.559 159.911 422.839 162.091 423.729 164.121 418.719 168.181 415.239 168.751 414.109 167.951 413.879 166.901 415.389 165.301 415.429 164.561 412.619 164.661 407.669 163.611 404.129 164.371 398.749 160.351 396.249 159.191 395.359 160.221 395.779 163.261 394.519 164.381 393.959 166.521 392.369 166.631 391.459 167.361 388.179 167.491 381.449 166.371 380.449 170.211 377.219 171.051 374.839 173.261 371.169 173.671 373.469 177.581 375.909 180.111 379.079 181.171 379.609 182.841 384.489 183.151 385.909 184.211 383.669 187.521 379.839 190.561 377.029 191.271 373.609 191.251 373.079 190.521 370.459 194.001 368.049 200.381 366.869 201.291 367.099 205.381 374.059 216.461 373.349 217.541 371.699 217.151 370.399 217.521 364.519 223.991 357.479 228.511 355.809 230.741 355.559 232.841 362.499 254.831 364.019 257.311 367.819 259.111 364.819 261.721 367.859 273.871 367.859 273.871 366.979 275.051 362.419 276.181 362.659 279.661 362.479 280.321 361.739 280.511 361.739 280.511 360.779 277.601 361.779 271.221 361.589 263.261 360.859 262.211 358.039 264.641 355.249 264.961 354.109 268.561 353.249 269.181 352.109 262.701 350.379 260.921 348.859 260.381 349.079 250.591 349.889 243.751 349.569 243.361 347.079 245.351 345.789 244.511 347.209 240.871 344.439 239.091 345.579 235.241 339.829 236.181 338.309 239.021 334.979 241.621 333.859 241.021 326.519 241.301 326.519 241.301 325.639 238.971 324.569 231.741 324.879 222.391 323.329 217.601 325.049 214.341 328.919 212.801 332.039 208.361 331.449 207.091 331.469 205.301 329.599 203.651 331.379 202.351 332.409 200.141 334.699 199.081 333.049 195.591 333.509 192.131 333.859 192.361 336.879 189.061 336.459 188.471 341.269 188.801 344.439 187.101 347.879 188.561 349.479 188.181 350.609 187.041 353.589 186.371 355.299 183.141 356.299 184.071 358.769 183.851 359.819 182.891 359.279 182.001 361.729 180.601 363.929 177.931 365.569 177.931 365.339 177.341 365.929 176.961 365.379 175.881 365.919 174.871 364.849 172.991 363.209 172.381 362.529 171.181 361.559 170.931 360.279 168.681 361.159 163.361 360.499 162.651 359.089 162.601 358.669 159.471 357.459 158.881 355.009 159.271 352.859 158.831 351.659 157.601 351.579 155.021 349.259 151.141 347.729 149.851 348.259 148.181 349.229 147.601 349.219 145.851 353.099 145.391 355.609 146.831 359.239 146.811 361.939 148.031 363.489 147.701 365.319 148.491 369.189 148.631 369.549 149.711 372.079 150.121 372.709 149.911 372.819 149.061 373.549 149.301 375.669 148.441 382.399 148.881 384.579 147.631 386.929 147.861 388.199 146.331 393.899 144.381 394.329 143.881 394.189 141.871 394.999 141.641 396.909 139.371 396.699 137.561 397.249 136.361 396.269 135.761 396.099 134.361 397.999 131.011 397.999 130.111 394.319 128.361 391.639 125.311 391.209 120.941 392.459 121.771 393.269 120.681 395.169 119.731 396.349 117.591 395.509 116.231 395.719 114.941 400.759 112.021 400.339 111.151 400.909 109.881 402.189 109.221 403.359 105.761 404.089 106.071 408.479 103.291 411.029 102.551Z" id="PK-TA" stroke="#FFC000" stroke-width="9.11111" stroke-linecap="butt" stroke-opacity="1" fill="none" fill-opacity="1"/></svg>