<svg viewBox="0 0 415.999 415.999" xmlns="http://www.w3.org/2000/svg" xmlns:xlink="http://www.w3.org/1999/xlink" id="Capa_1" overflow="hidden"><g><g><rect x="240" y="240" width="64" height="16"/></g></g><g><g><rect x="240" y="288" width="64" height="16"/></g></g><g><g><circle cx="208.24" cy="48" r="12"/></g></g><g><g><path d="M367.998 96C367.998 78.327 353.672 64 335.999 64L291.575 64C285.649 57.417 278.037 52.38 269.291 49.864 261.924 47.745 256.254 42.075 254.135 34.708 248.371 14.664 229.897 0 207.999 0 186.101 0 167.629 14.663 161.865 34.707 159.743 42.083 154.059 47.746 146.684 49.871 137.946 52.389 130.342 57.421 124.422 64L80 64C62.326 64 48 78.327 48 96L48 383.999C48 401.672 62.326 415.999 80 415.999 153.466 415.999 243.758 415.999 336 415.999 353.674 415.999 368 401.672 368 383.999 368 293.12 367.999 206.097 367.998 96ZM128 95.742C128.11 81.676 137.614 69.136 151.112 65.246 163.822 61.583 173.59 51.82 177.24 39.129 181.157 25.512 193.805 16 207.999 16 222.193 16 234.841 25.512 238.757 39.131 242.409 51.829 252.17 61.59 264.868 65.241 278.486 69.157 287.998 81.806 287.998 95.999L287.998 111.999 128 111.999 128 95.742ZM336 399.999C250.545 399.999 165.23 399.999 80 399.999 71.177 399.999 64 392.821 64 383.999L64 96C64 87.178 71.177 80 80 80L114.742 80C113.012 84.892 112.046 90.143 112.003 95.617L112.003 128 304 128 304 96C304 90.385 303.008 85.009 301.236 80L336 80C344.822 80 351.999 87.178 351.999 96 351.999 141.743 351.998 356.254 352.001 383.999 352 392.822 344.823 399.999 336 399.999Z"/></g></g><g><g><path d="M239.818 175.088 171.952 242.953 154.811 225.811 143.481 237.142 171.935 265.597 191.999 245.534 191.999 287.999 127.999 287.999 127.999 208 175.999 208 191.999 192 111.999 192 111.998 304 207.999 304 207.999 229.534 251.132 186.402Z"/></g></g><g></g><g></g><g></g><g></g><g></g><g></g><g></g><g></g><g></g><g></g><g></g><g></g><g></g><g></g><g></g></svg>